<svg width="30" height="30" viewBox="0 0 30 30" fill="none" xmlns="http://www.w3.org/2000/svg">
<path fill-rule="evenodd" clip-rule="evenodd" d="M7 0C3.13401 0 0 3.13401 0 7V23C0 26.866 3.13401 30 7 30H23C26.866 30 30 26.866 30 23V7C30 3.13401 26.866 0 23 0H7ZM19.8 8.588H18.0473C16.3345 8.588 16.3661 9.60484 16.4122 11.0875C16.4267 11.5519 16.4426 12.0619 16.4067 12.6008H19.508L19.0833 16.0136H16.4075V24.6H12.9886V16.0128H10.2V12.6H12.9894C13.0289 12.4351 13.013 12.098 12.992 11.6558C12.8959 9.63063 12.6953 5.4 17.2466 5.4C18.4577 5.4 19.4976 5.4936 19.8 5.5352V8.588Z" fill="#869BD8"/>
</svg>
