<svg width="30" height="30" viewBox="0 0 30 30" fill="none" xmlns="http://www.w3.org/2000/svg">
<path fill-rule="evenodd" clip-rule="evenodd" d="M7 0.000194313C9.5 0 12.4042 0 15 0C18.5 2.42087e-05 21 5.02112e-05 23 0.000220002C27.5 0 30 3.43469 30 7V15L30 23C30 26.5 26.6327 30 23 30L15 30L6.99998 30C2.49998 30 -2.24782e-05 26.5 2.39032e-05 23L3.39916e-06 15L1.08177e-10 7C-2.24683e-05 2.5 3.49998 0 7 0.000194313ZM23.161 20.6419C23.3739 20.094 23.5197 19.468 23.5613 18.5511C23.6034 17.6326 23.6133 17.3392 23.6133 15C23.6133 12.6608 23.6034 12.3674 23.5616 11.4489C23.5197 10.532 23.3741 9.90601 23.161 9.35806C22.945 8.78334 22.6057 8.26286 22.1677 7.83256C21.7374 7.39426 21.2167 7.05504 20.6419 6.83875C20.094 6.62612 19.468 6.48055 18.5511 6.43889C17.6326 6.39678 17.3392 6.38671 15 6.38671C12.6608 6.38671 12.3674 6.39678 11.4489 6.43866C10.532 6.48055 9.90601 6.62612 9.35807 6.83898C8.78334 7.05527 8.26264 7.39426 7.83257 7.83256C7.39426 8.26263 7.05506 8.78334 6.83876 9.35806C6.6259 9.90601 6.48033 10.532 6.43868 11.4489C6.39656 12.3674 6.38672 12.6608 6.38672 15C6.38672 17.3392 6.39656 17.6326 6.43891 18.5513C6.48056 19.468 6.62636 20.0942 6.83922 20.6419C7.05551 21.2167 7.39449 21.7374 7.83257 22.1674C8.26287 22.6057 8.78334 22.9447 9.35829 23.161C9.90601 23.3739 10.5322 23.5194 11.4489 23.5613C12.3676 23.6032 12.6608 23.6133 15.0002 23.6133C17.3394 23.6133 17.6328 23.6032 18.5513 23.5613C19.468 23.5194 20.0942 23.3739 20.6419 23.161C21.7989 22.7135 22.7136 21.7989 23.161 20.6419ZM21.7144 9.92018C21.5764 9.54619 21.3562 9.20767 21.0701 8.92981C20.7923 8.6437 20.454 8.42352 20.0798 8.28551C19.7763 8.16763 19.3203 8.02733 18.4806 7.9891C17.5721 7.94768 17.2998 7.93875 15 7.93875C12.6999 7.93875 12.4276 7.94745 11.5194 7.98887C10.6796 8.02733 10.2234 8.16763 9.92015 8.28551C9.54593 8.42352 9.20742 8.6437 8.92978 8.92981C8.64368 9.20767 8.4235 9.54596 8.28525 9.92018C8.16738 10.2237 8.02707 10.6798 7.98885 11.5196C7.94742 12.4278 7.93849 12.7002 7.93849 15.0002C7.93849 17.3 7.94742 17.5724 7.98885 18.4808C8.02707 19.3206 8.16738 19.7765 8.28525 20.08C8.4235 20.4542 8.64345 20.7925 8.92955 21.0704C9.20742 21.3565 9.5457 21.5767 9.91992 21.7147C10.2234 21.8328 10.6796 21.9731 11.5194 22.0113C12.4276 22.0527 12.6997 22.0614 14.9997 22.0614C17.3 22.0614 17.5724 22.0527 18.4803 22.0113C19.3201 21.9731 19.7763 21.8328 20.0798 21.7147C20.831 21.4249 21.4247 20.8312 21.7144 20.08C21.8323 19.7765 21.9726 19.3206 22.0111 18.4808C22.0525 17.5724 22.0612 17.3 22.0612 15.0002C22.0612 12.7002 22.0525 12.4278 22.0111 11.5196C21.9728 10.6798 21.8325 10.2237 21.7144 9.92018ZM15 19.4229C12.5571 19.4229 10.5768 17.4428 10.5768 15C10.5768 12.5571 12.5571 10.5771 15 10.5771C17.4426 10.5771 19.4229 12.5571 19.4229 15C19.4229 17.4428 17.4426 19.4229 15 19.4229ZM19.5977 11.4358C19.0269 11.4358 18.5641 10.973 18.5641 10.4022C18.5641 9.83137 19.0269 9.36857 19.5977 9.36857C20.1686 9.36857 20.6314 9.83137 20.6314 10.4022C20.6311 10.973 20.1686 11.4358 19.5977 11.4358ZM17.8711 15C17.8711 16.5857 16.5857 17.8711 15 17.8711C13.4143 17.8711 12.1289 16.5857 12.1289 15C12.1289 13.4143 13.4143 12.1289 15 12.1289C16.5857 12.1289 17.8711 13.4143 17.8711 15Z" fill="#869BD8"/>
</svg>
