<svg width="30" height="30" viewBox="0 0 30 30" fill="none" xmlns="http://www.w3.org/2000/svg">
<g clip-path="url(#clip0)">
<path d="M15.0143 12.4318C16.4466 12.4266 17.5873 11.276 17.5821 9.84059C17.5769 8.40458 16.4337 7.26197 15.0007 7.26074C13.5558 7.25921 12.4019 8.42299 12.4129 9.87189C12.4237 11.3021 13.5773 12.437 15.0143 12.4318Z" fill="#869BD8"/>
<path d="M15.0001 4.22096e-05C11.9333 4.22096e-05 9.5 -0.000424972 7 -0.00016587C3 -0.00016587 0 2.99983 0 6.99983C0 8.49983 7.20024e-05 13.0585 7.20024e-05 15C7.20024e-05 17.3469 -8.6898e-07 21.0002 1.82688e-05 23.0002C1.82688e-05 27.0002 3 30 7 30C9.5 30.0002 12.2728 30 15.0001 30C17.7274 30 21 30.0002 23 30.0002C27 30.0002 30 27.0002 30 23.0002C30 21.0002 30.0001 17.5282 30.0001 15C30.0001 12.8668 30.0001 8.99983 30.0001 6.99983C30.0001 2.99983 27.0001 -0.00016587 23.0001 -0.00016587C21.0001 -0.00016587 17.1099 4.22096e-05 15.0001 4.22096e-05ZM15.0216 4.56158C17.9433 4.56956 20.2884 6.95943 20.2733 9.91339C20.2586 12.7992 17.8752 15.1381 14.9583 15.1283C12.0713 15.1185 9.7035 12.725 9.72069 9.83329C9.73695 6.91002 12.106 4.5536 15.0216 4.56158ZM20.9393 17.2042C20.2933 17.8675 19.5156 18.3475 18.6519 18.6823C17.8356 18.9987 16.9409 19.158 16.0552 19.2642C16.1893 19.4097 16.2522 19.4812 16.3357 19.5646C17.5376 20.7729 18.7452 21.9751 19.9431 23.1867C20.3513 23.5998 20.4363 24.1118 20.2116 24.5914C19.9664 25.1163 19.4161 25.4612 18.8763 25.4241C18.5344 25.4004 18.2677 25.2307 18.0311 24.9923C17.1238 24.0795 16.1995 23.1831 15.3113 22.2531C15.0519 21.9824 14.9279 22.034 14.6993 22.2691C13.7869 23.2088 12.8594 24.1335 11.9267 25.0533C11.5078 25.4664 11.0094 25.5413 10.5232 25.305C10.0067 25.0552 9.67833 24.5276 9.7035 23.997C9.7213 23.6391 9.89746 23.3647 10.1436 23.1198C11.3335 21.9324 12.5197 20.7413 13.7062 19.5511C13.785 19.4723 13.8581 19.3885 13.9726 19.2657C12.3542 19.0966 10.8949 18.6982 9.64549 17.7214C9.4902 17.5998 9.3303 17.4826 9.18913 17.3463C8.64191 16.8212 8.58698 16.2194 9.01941 15.6C9.38984 15.0697 10.011 14.9279 10.6571 15.2327C10.7823 15.2913 10.9013 15.3656 11.0155 15.4441C13.3437 17.044 16.5423 17.0879 18.8797 15.5156C19.1111 15.3389 19.3587 15.1934 19.6457 15.12C20.203 14.9764 20.7235 15.1817 21.0225 15.6697C21.3647 16.2274 21.3607 16.7712 20.9393 17.2042Z" fill="#869BD8"/>
</g>
<defs>
<clipPath id="clip0">
<rect width="30" height="30" fill="white"/>
</clipPath>
</defs>
</svg>
